<svg xmlns="http://www.w3.org/2000/svg" width="300" height="207.723" viewBox="0 0 300 207.723"><path fill="#B2B2B2" d="M.004 54.576s88.883-11.503 91.392-11.91c3.85-.63 7.264-1.364 10.447-2.242 7.187-1.97 13.808-4.977 19.663-8.94 5.62-3.763 10.846-9.243 16.027-15.257C140.82 12.4 144.28 7.415 147.51 2.6V.274c-3.827 5.665-7.595 10.552-11.476 14.86-5.14 5.723-10.53 10.396-16.027 13.906-5.67 3.653-12.05 6.38-18.974 8.105-3.102.78-6.422 1.413-10.158 1.934-2.455.343-4.99.61-7.445.864-.978.108-83.435 8.853-83.435 8.853v5.78h.01z"/><path fill="#B2B2B2" d="M119.2 39.677c-5.564 3.197-11.99 5.543-19.1 6.955-3.034.616-6.345 1.114-10.117 1.522-2.22.245-4.452.435-6.684.63-1.206.104-2.415.208-3.62.317C52.44 51.547 25.342 54.146 0 56.6v5.77c25.54-3.08 52.83-6.345 80.06-9.425 1.214-.14 2.423-.276 3.637-.407 2.228-.245 4.465-.494 6.702-.788 3.876-.516 7.268-1.11 10.365-1.812 7.387-1.653 14.057-4.257 19.827-7.748 5.728-3.437 10.79-8.256 16.235-14.138 3.392-3.664 7.16-8.836 10.692-13.695v-2.12c-4.163 5.64-8.107 10.376-12.007 14.42-5.32 5.507-10.805 9.88-16.312 13.02"/><path fill="#B2B2B2" d="M134.757 38.264c-5.425 4.977-11.086 8.89-16.828 11.63-5.62 2.712-11.907 4.614-19.225 5.814-3.016.502-6.3.91-10.03 1.25L.004 64.235v5.75l78.82-8.358 10.193-1.07c3.845-.447 7.196-.946 10.24-1.52 7.58-1.432 14.083-3.57 19.875-6.53 5.92-2.994 11.838-7.976 17.34-13.252 3.69-3.536 7.246-8.106 11.046-12.897v-1.92c-4.394 5.452-8.583 9.99-12.763 13.826"/><path fill="#B2B2B2" d="M113.314 68.14c-5.162 2.888-9.02 4.55-16.393 5.32-4.455.48-9.034.706-13.467.928-2.138.11-4.284.213-6.43.35-13.392.764-26.548 1.61-39.97 2.485L.003 79.718v5.752l37.425-3.433c12.092-1.087 26.14-2.337 39.857-3.46l9.972-.77c3.894-.3 7.087-.616 10.04-1 7.585-.98 14.065-2.514 19.808-4.683 6.18-2.31 12.014-5.896 17.847-10.12 5.267-3.805 12.55-11.305 12.558-11.4V48.57c-4.76 4.643-7.5 7.25-12.712 10.688-6.23 4.108-16.85 6.29-21.484 8.88"/><path fill="#B2B2B2" d="M115.198 79.07c-5.593 1.64-11.887 2.75-19.246 3.393-2.985.262-6.2.457-9.832.607l-9.918.434c-24.64 1.142-49.17 2.423-76.198 3.854v5.733c25.827-1.996 51.128-3.94 76.425-5.74l9.885-.676c3.822-.253 6.983-.525 9.963-.86 7.54-.842 13.993-2.147 19.722-3.98 6.344-2.01 12.53-4.923 18.386-8.66 4.32-2.748 8.645-6.036 13.128-9.944v-.104c-4.94 4.216-9.65 5.158-14.342 7.988-5.756 3.492-11.8 6.164-17.974 7.957"/><path fill="#B2B2B2" d="M114.283 88.604c-5.633 1.317-11.742 2.164-19.22 2.667-2.88.19-5.98.336-9.758.454l-9.823.353c-24.75.933-49.842 2.01-75.487 3.125v5.733c25.478-1.74 50.47-3.428 75.677-5.004l9.8-.588c3.845-.222 6.974-.44 9.855-.706 7.612-.702 13.844-1.726 19.608-3.216 6.463-1.662 12.748-4.107 18.676-7.254 4.584-2.428 9.163-5.35 13.9-8.872v-2.45c-5.122 3.695-10.036 6.71-14.95 9.17-5.823 2.908-11.968 5.127-18.277 6.59"/><path fill="#B2B2B2" d="M113.446 97.946c-5.657 1.037-11.74 1.698-19.16 2.08-2.79.148-5.78.248-9.688.338L.004 102.65v5.734l75.012-3.917 9.718-.493c3.795-.182 6.897-.363 9.764-.585 7.522-.576 13.712-1.404 19.473-2.61 6.545-1.358 12.894-3.34 18.876-5.886 4.818-2.043 9.64-4.533 14.668-7.563v-2.304c-5.366 3.125-10.47 5.624-15.542 7.635-5.896 2.352-12.128 4.127-18.526 5.286"/><path fill="#B2B2B2" d="M112.78 107.334c-10.384 1.386-21.063 1.544-31.4 1.698-2.365.032-4.738.068-7.107.118L0 110.486v5.724l74.404-3.206c2.355-.11 4.724-.204 7.088-.295 10.402-.422 21.166-.848 31.686-2.52 6.657-1.045 13.065-2.603 19.048-4.613 4.954-1.662 10.08-3.804 15.28-6.34V97.04c-5.462 2.54-10.838 4.66-15.99 6.245-5.907 1.82-12.206 3.188-18.736 4.05M112.19 116.776c-9.722.802-19.676.802-29.303.802-2.994 0-5.987 0-8.985.022-24.61.11-49.018.313-73.902.525v5.725c23.702-.806 48.84-1.644 73.983-2.39 2.985-.1 5.97-.174 8.958-.255 9.683-.245 19.687-.494 29.518-1.558 6.86-.738 13.11-1.816 19.093-3.297 5.218-1.286 10.58-2.993 15.964-5.05v-2.105c-5.56 1.993-11.095 3.623-16.488 4.81-5.928 1.317-12.087 2.218-18.835 2.77M111.815 126.087c-4.053.158-8.44.235-13.413.235-1.88 0-3.764-.01-5.64-.027l-19.14-.23c-13.06-.1-26.077-.12-38.286-.132l-35.327.03v5.72l35.412-.923c12.164-.3 25.21-.61 38.24-.842l19.13-.254c5.247-.08 12.167-.24 19.182-.697 6.87-.448 13.128-1.132 19.124-2.088 5.394-.86 10.91-2.02 16.42-3.433v-2.025c-5.665 1.3-11.298 2.35-16.76 3.08-5.968.797-12.16 1.313-18.943 1.585M92.542 135.085l-19.075-.204c-24.34-.343-48.655-.787-73.458-1.25v5.726c23.674-.154 48.75-.336 73.475-.612l19.088-.285c6.43-.114 12.73-.232 19.102-.44 13.115-.417 24.866-1.34 35.844-2.8v-1.992c-11.024 1.19-22.785 1.812-35.913 1.898-6.354.054-12.712.013-19.065-.04M147.514 145.202l-147.51-3.74v5.724h147.51v-1.984zM134.232 49.073c-5.602 4.502-9.927 7.7-16.788 10.42-5.973 2.378-12.385 3.347-19.717 4.348-4.715.662-9.646 1.636-14.356 1.953-1.937.13-3.87.254-5.8.408L.01 71.858V77.6l77.872-7.555 10.1-.946c3.74-.36 7.068-.766 10.16-1.27 7.546-1.213 14.05-3.056 19.882-5.655 6.046-2.668 12.164-7.038 17.856-11.82 3.868-3.252 7.59-7.336 11.64-11.802v-2.056c-4.906 5.063-8.968 9.112-13.288 12.576"/><path fill="#FFF" d="M61.312 202.045h129.215v-57.463H61.312v57.463z"/><path fill="#B2B2B2" d="M190.55 60.73H61.312v86.45h129.233l.005-86.45z"/><path fill="#FFF" d="M127.335 73.025h4.497l-3.623 2.826 1.407 4.48-3.61-2.758-3.613 2.758 1.427-4.48-3.654-2.825h4.483l1.358-4.37 1.327 4.37zM127.493 130.68H132l-3.628 2.72 1.408 4.303-3.61-2.65-3.604 2.65 1.422-4.303-3.664-2.72h4.488l1.36-4.204 1.32 4.203zM141.754 126.86h4.506l-3.628 2.718 1.41 4.307-3.61-2.658-3.605 2.658 1.422-4.307-3.665-2.717h4.488l1.358-4.206 1.324 4.207zM141.754 76.87h4.506l-3.628 2.717 1.41 4.307-3.61-2.654-3.605 2.654 1.422-4.307-3.665-2.717h4.488l1.358-4.198 1.324 4.198zM152.342 87.458h4.492l-3.623 2.712 1.41 4.316-3.61-2.654-3.6 2.654 1.422-4.316-3.664-2.712h4.484l1.358-4.207 1.332 4.208zM152.342 116.418h4.492l-3.623 2.722 1.41 4.316-3.61-2.663-3.6 2.663 1.422-4.316-3.664-2.722h4.484l1.358-4.207 1.332 4.208zM156.31 101.718h4.505l-3.628 2.718 1.41 4.31-3.61-2.658-3.605 2.66 1.422-4.312-3.664-2.718h4.483l1.363-4.198 1.323 4.198zM112.793 76.906h4.493l-3.623 2.722 1.408 4.307-3.608-2.663-3.614 2.663 1.427-4.307-3.655-2.722h4.483l1.36-4.198 1.33 4.198zM102.5 87.494h4.506l-3.628 2.717 1.404 4.312-3.604-2.658-3.605 2.658 1.413-4.31-3.655-2.718h4.49l1.358-4.198 1.322 4.198zM98.678 101.75h4.5l-3.622 2.717 1.404 4.31-3.605-2.652-3.61 2.653 1.423-4.31-3.65-2.718H96l1.36-4.198 1.318 4.198zM102.5 116.45h4.506l-3.628 2.722 1.404 4.315-3.604-2.658-3.605 2.657 1.413-4.315-3.655-2.722h4.49l1.358-4.194 1.322 4.194zM112.943 126.893h4.492l-3.623 2.717 1.4 4.307-3.6-2.654-3.61 2.654 1.427-4.307-3.66-2.717h4.483l1.358-4.207 1.333 4.207z"/><path fill="#B2B2B2" d="M61.312 207.724H190.56v-7.377H61.31v7.377zM208.94 0s26.945 41.963 31.877 49.68c4.927 7.712 10.556 13.812 30.496 17.956 19.934 4.144 28.616 6.1 28.616 6.1v1.495s-12.672-2.65-28.975-6.217c-16.3-3.57-22.96-4.773-30.392-14.904-6.186-8.433-31.623-44.286-31.623-44.286V0z"/><path fill="#B2B2B2" d="M208.94 11.93s27.847 39.892 31.542 44.783c3.695 4.89 8.672 12.77 30.68 17.422 5.685 1.2 28.84 5.756 28.84 5.756v1.264s-17.594-3.392-28.84-5.756c-11.248-2.368-23.063-4.524-30.6-14.034-6.85-8.636-31.672-40.5-31.672-40.5l.05-8.934z"/><path fill="#B2B2B2" d="M208.94 23.917s26.24 33.9 31.542 40.685c5.298 6.775 12.607 12.372 30.68 15.846 10.42 2.006 28.758 5.36 28.758 5.36v1.265s-16.068-2.994-28.757-5.28c-12.694-2.287-23.168-4.502-30.68-12.93-6.59-7.4-31.593-36.478-31.593-36.478l.05-8.468z"/><path fill="#B2B2B2" d="M208.89 35.69s26.565 30.755 31.673 36.24c7.953 8.54 11.81 11.484 30.605 15.057 7.517 1.43 28.756 5.126 28.756 5.126v1.336s-17.59-3.153-28.756-5.123c-11.163-1.97-20.61-2.703-30.682-12.38-7.67-7.364-31.54-32.322-31.54-32.322l-.056-7.934z"/><path fill="#B2B2B2" d="M208.94 47.937s24.527 25.197 31.623 32.43c7.522 7.67 17.164 10.51 30.523 12.85 12.753 2.23 28.838 4.81 28.838 4.81v1.413s-15.103-2.422-28.838-4.727c-13.468-2.265-22.892-3.524-30.604-10.49-6.906-6.24-31.542-28.882-31.542-28.882v-7.403z"/><path fill="#B2B2B2" d="M208.94 59.29s23.327 21.235 31.623 28.49c7.63 6.674 13.817 8.753 30.6 11.665 16.792 2.916 28.757 4.728 28.757 4.728v1.5s-15.185-2.447-28.838-4.575c-13.654-2.128-22.354-2.966-30.523-9.46-9.425-7.495-31.624-25.41-31.624-25.41l.004-6.938z"/><path fill="#B2B2B2" d="M208.886 71.43s26.61 20.688 31.59 24.306c4.983 3.627 11.567 7.857 30.683 10.57 18.955 2.68 28.678 4.017 28.678 4.017v1.58s-17.186-2.45-28.68-3.867c-11.484-1.422-20.292-2.02-30.604-8.754-10.035-6.548-31.618-21.443-31.618-21.443l-.05-6.41z"/><path fill="#B2B2B2" d="M208.886 83.047s26.69 17.42 31.75 20.184c5.067 2.76 11.01 7.25 30.523 9.697 19.517 2.44 28.678 3.54 28.678 3.54v1.5s-16.144-1.734-28.756-3.075c-12.613-1.34-21.203-3.152-30.6-8.2-9.397-5.046-31.542-17.713-31.542-17.713l-.054-5.933z"/><path fill="#B2B2B2" d="M208.94 94.663s23.62 12.594 31.623 16.53c8.917 4.387 16.625 6.493 30.6 8.114 13.722 1.608 28.757 3.157 28.757 3.157v1.422s-13.903-1.463-28.757-2.844c-14.722-1.363-19.97-1.997-30.6-6.62-9.51-4.136-31.673-14.243-31.673-14.243l.05-5.517z"/><path fill="#B2B2B2" d="M208.94 106.487s18.586 7.798 31.7 12.902c12.907 5.02 22.76 5.442 30.6 6.312 3.455.38 28.598 2.916 28.598 2.916v1.418s-15.02-1.178-28.68-2.36c-13.653-1.182-19.545-1.68-30.6-5.28-11.19-3.64-31.672-10.642-31.672-10.642l.054-5.267zM208.94 118.474s18.848 5.73 31.7 9.04c12.848 3.31 24.66 4.655 30.6 5.044 5.946.394 28.598 2.206 28.598 2.206v1.34s-12.847-.86-28.68-1.97c-12.797-.897-23.077-1.84-30.6-3.47-8.336-1.806-31.672-7.25-31.672-7.25l.054-4.94zM208.89 130.298s15.466 2.61 31.75 5.254c12.21 1.988 28.757 3.237 30.523 3.31 1.766.077 28.757 1.897 28.757 1.897v1.412s-17.272-.87-28.757-1.494c-11.96-.652-23.847-1.36-30.604-2.047-15.127-1.548-31.674-3.6-31.674-3.6V130.3h.004zM208.94 142.544s24.314.896 31.7 1.05c7.387.16 59.28 2.206 59.28 2.206v1.422l-90.98-.06v-4.618zM68.87 155.704c0-.267.123-.408.408-.408h7.5c.244 0 .39.14.39.385v1.27c0 .244-.105.366-.41.366h-5.564v3.505h4.93c.27 0 .41.128.41.368v1.263c0 .246-.1.368-.41.368h-4.93v4.013H76.9c.244 0 .367.123.367.39v1.236c0 .268-.1.372-.39.372h-7.603c-.286 0-.408-.127-.408-.372l.005-12.752zM86.722 168.832h-1.45c-.307 0-.384-.14-.384-.385v-.634l-.04-.022c-.798.553-2.188 1.223-3.424 1.223-2.75 0-3.016-1.63-3.016-3.767v-5.996c0-.245.104-.403.385-.403h1.49c.267 0 .366.14.366.403v5.728c0 1.228.244 1.998 1.49 1.998.878 0 2.218-.653 2.753-.92v-6.806c0-.245.077-.403.385-.403h1.45c.284 0 .384.14.384.403v9.197c-.005.258-.11.385-.39.385M91.083 168.443c0 .244-.104.385-.385.385h-1.47c-.287 0-.386-.118-.386-.385v-9.193c0-.267.1-.408.385-.408h1.45c.307 0 .406.163.406.408v.892l.04.04c.612-.565 2.062-1.263 3.017-1.444.267-.063.448 0 .494.344l.14 1.363c.018.29.04.408-.39.494-1.136.22-2.585.628-3.3.932v6.57zM99.66 160.595c-1.734 0-2.123 1.105-2.123 3.22 0 2.16.39 3.22 2.1 3.22 1.858 0 2.224-1.042 2.224-3.22.006-2.16-.343-3.22-2.2-3.22m-.022 8.4c-4.094 0-4.36-2.998-4.36-5.32 0-1.92.424-5.037 4.36-5.037 3.958 0 4.506 2.63 4.506 5.036 0 2.323-.28 5.32-4.506 5.32M110.24 160.722c-.84 0-2.125.588-2.736.914v5.095c.92.268 1.653.345 2.35.345 1.468 0 1.975-.752 1.975-3.32 0-2.59-.508-3.033-1.59-3.033m-.164 8.296c-.675 0-1.607-.127-2.55-.453l-.022.023v3.586c0 .222-.054.408-.385.408h-1.45c-.322 0-.385-.14-.385-.408V159.25c0-.267.1-.408.385-.408h1.45c.29 0 .366.16.366.408v.61l.063.042c.728-.512 2.037-1.223 3.22-1.223 2.666 0 3.36 2.014 3.36 5.094.004 3.328-.834 5.244-4.054 5.244M117.657 162.922h4.035c0-1.245-.326-2.445-2.015-2.445-1.513 0-1.92.915-2.02 2.445m-.023 1.527c.064 2.06.798 2.63 2.47 2.63.732 0 1.873-.145 2.648-.227.367-.04.493-.04.552.344l.118.675c.063.308.023.47-.344.634-.797.304-2.283.507-3.283.507-3.895 0-4.466-2.486-4.466-5.14 0-1.974.366-5.235 4.347-5.235 3.645 0 4.298 2.364 4.356 4.565.023.738-.18 1.246-.996 1.246h-5.403zM131.247 164.286h-2.486c-1.018 0-1.674.366-1.674 1.716 0 .897.308 1.182 1.268 1.182.878 0 2.115-.516 2.893-.96v-1.938zm.127 3.382c-1.02.775-2.386 1.323-3.754 1.323-2.165 0-2.79-1.18-2.79-2.893-.022-2.387 1.264-3.41 3.832-3.41h2.608v-.525c0-1.223-.453-1.653-2.124-1.653-.675 0-1.956.103-2.77.18-.41.063-.513.04-.567-.245l-.187-.75c-.04-.27.023-.432.47-.613.88-.308 2.487-.448 3.447-.448 3.528 0 3.95 1.444 3.95 3.73v3.937c0 .834.103.857.733.934.308.022.385.086.385.303v.86c0 .222-.14.363-.485.426-.326.064-.652.1-.955.1-.965 0-1.55-.285-1.758-1.24l-.036-.015zM143.497 168.832h-1.467c-.267 0-.39-.127-.39-.385l.023-5.728c0-1.206-.285-1.998-1.467-1.998-.815 0-2.242.652-2.8.92v6.81c0 .244-.098.385-.384.385h-1.45c-.28 0-.384-.127-.384-.385v-9.198c0-.262.104-.403.385-.403h1.45c.285 0 .384.142.384.404v.616c.023 0 .046.018.064.018.752-.525 2.18-1.222 3.424-1.222 2.754 0 3.003 1.815 3.003 3.87v5.916c0 .24-.086.38-.39.38M74.187 176.667c.996 0 2.65.14 3.732.588.33.145.447.313.384.634l-.182.837c-.063.24-.163.344-.534.304-.996-.126-2.22-.267-3.28-.267-2.77 0-3.178 2.242-3.178 4.89 0 2.673.507 4.774 3.18 4.774 1.177 0 2.178-.126 3.278-.267.39-.04.47.064.553.33l.16.775c.085.322-.02.507-.345.652-.996.426-2.776.612-3.768.612-4.547 0-5.502-3.366-5.502-6.835 0-3.482.856-7.028 5.502-7.028M82.932 182.106c-1.735 0-2.124 1.105-2.124 3.22 0 2.164.39 3.22 2.1 3.22 1.858 0 2.225-1.042 2.225-3.22 0-2.16-.344-3.22-2.2-3.22m-.024 8.4c-4.095 0-4.357-2.998-4.357-5.32 0-1.92.425-5.037 4.356-5.037 3.957 0 4.505 2.63 4.505 5.035 0 2.323-.285 5.32-4.506 5.32M102.82 190.343h-1.466c-.29 0-.39-.127-.39-.385v-5.792c0-1.512-.362-1.934-1.385-1.934-.753 0-1.976.59-2.605.915 0 .204.018.57.018 1.037v5.774c0 .245-.077.385-.385.385h-1.49c-.267 0-.344-.122-.344-.385v-5.892c0-1.245-.326-1.834-1.345-1.834-.716 0-1.858.512-2.632.915v6.81c0 .246-.1.386-.385.386h-1.467c-.267 0-.367-.127-.367-.385v-9.197c0-.258.1-.402.366-.402h1.444c.308 0 .408.158.408.403v.598l.023.023c.793-.55 1.916-1.167 3.04-1.204 1.177 0 2.155.245 2.79 1.427 1.018-.752 2.28-1.427 3.586-1.427 2.69 0 2.957 1.753 2.957 3.795v5.997c0 .236-.086.376-.372.376M118.798 190.343h-1.467c-.29 0-.388-.127-.388-.385v-5.792c0-1.512-.363-1.934-1.386-1.934-.752 0-1.975.59-2.604.915 0 .204.018.57.018 1.037v5.774c0 .245-.077.385-.385.385h-1.49c-.267 0-.344-.122-.344-.385v-5.892c0-1.245-.325-1.834-1.344-1.834-.71 0-1.857.512-2.63.915v6.81c0 .246-.105.386-.386.386h-1.467c-.267 0-.367-.127-.367-.385v-9.197c0-.258.104-.402.367-.402h1.444c.308 0 .408.158.408.403v.598l.023.023c.792-.55 1.91-1.167 3.038-1.204 1.178 0 2.156.245 2.79 1.427 1.02-.752 2.282-1.427 3.59-1.427 2.69 0 2.958 1.753 2.958 3.795v5.997c-.004.236-.09.376-.376.376M123.055 189.954c0 .222-.077.385-.367.385h-1.45c-.284 0-.406-.12-.406-.386v-9.216c0-.28.122-.385.407-.385h1.448c.29 0 .367.163.367.385v9.216zm-1.082-11.064c-1.06 0-1.2-.593-1.2-1.182 0-.652.222-1.164 1.2-1.164 1 0 1.205.47 1.205 1.164.004.625-.182 1.182-1.205 1.182M128.11 190.506c-1.02 0-2.383-.14-3.162-.448-.407-.163-.493-.353-.43-.675l.14-.675c.064-.326.204-.344.53-.303.897.14 2.2.24 2.894.24 1.31 0 1.84-.344 1.84-1.16 0-.937-.35-1.14-1.636-1.322-1.997-.29-3.75-.71-3.75-2.94 0-2.014 1.544-3.074 3.83-3.074.835 0 2.243.117 3.1.448.343.14.492.303.43.61l-.164.73c-.063.29-.18.326-.548.29-.878-.104-2.02-.227-2.77-.227-1.306 0-1.61.368-1.61 1.143 0 .792.485.896 1.735 1.1 1.938.285 3.686.675 3.686 3.102 0 2.387-2.016 3.16-4.117 3.16M136.65 190.506c-1.02 0-2.382-.14-3.16-.448-.408-.163-.494-.353-.43-.675l.14-.675c.063-.326.203-.344.534-.303.896.14 2.2.24 2.893.24 1.31 0 1.84-.344 1.84-1.16 0-.937-.354-1.14-1.636-1.322-1.996-.29-3.748-.71-3.748-2.94 0-2.014 1.544-3.074 3.83-3.074.834 0 2.242.117 3.098.448.344.14.494.303.43.61l-.162.73c-.064.29-.182.326-.548.29-.88-.104-2.02-.227-2.776-.227-1.305 0-1.608.368-1.608 1.143 0 .792.49.896 1.734 1.1 1.94.285 3.687.675 3.687 3.102-.005 2.387-2.016 3.16-4.117 3.16M144.353 189.954c0 .222-.077.385-.367.385h-1.45c-.284 0-.406-.12-.406-.386v-9.216c0-.28.122-.385.407-.385h1.45c.29 0 .366.163.366.385v9.216zm-1.082-11.064c-1.06 0-1.2-.593-1.2-1.182 0-.652.223-1.164 1.2-1.164 1.002 0 1.206.47 1.206 1.164 0 .625-.186 1.182-1.205 1.182M150.24 182.106c-1.734 0-2.12 1.105-2.12 3.22 0 2.164.386 3.22 2.093 3.22 1.857 0 2.224-1.042 2.224-3.22.004-2.16-.34-3.22-2.197-3.22m-.022 8.4c-4.094 0-4.36-2.998-4.36-5.32 0-1.92.424-5.037 4.36-5.037 3.958 0 4.506 2.63 4.506 5.035 0 2.323-.28 5.32-4.506 5.32M164.143 190.343h-1.467c-.267 0-.39-.127-.39-.385l.023-5.73c0-1.203-.286-1.996-1.468-1.996-.815 0-2.242.652-2.8.915v6.81c0 .246-.098.386-.384.386h-1.45c-.284 0-.384-.127-.384-.385v-9.197c0-.258.1-.402.385-.402h1.448c.286 0 .385.14.385.403v.616c.023 0 .04.02.064.02.75-.527 2.187-1.224 3.423-1.224 2.75 0 2.998 1.816 2.998 3.872v5.914c.005.245-.08.385-.385.385"/></svg>